    <svg width="100" height="100" viewBox="0 0 100 100" fill="none" xmlns="http://www.w3.org/2000/svg">
            <mask id="mask0_1998_114616" maskUnits="userSpaceOnUse" x="0" y="0" width="100" height="100">
              <rect width="100" height="100" fill="#FF0000"></rect>
            </mask>
            <g mask="url(#mask0_1998_114616)">
              <path
                d="M85.6942 19.0116C84.8478 21.8202 82.9063 22.5843 81.1132 22.0448C82.9063 22.5843 84.1138 24.2559 83.358 26.764C84.1138 24.2559 85.9402 23.4971 87.8374 24.0678C85.9402 23.4971 84.8536 21.8011 85.6942 19.0116Z"
                fill="#7BEED8"
              ></path>
              <ellipse
                cx="1.35006"
                cy="1.36182"
                rx="1.35006"
                ry="1.36182"
                transform="matrix(0.793599 0.608441 -0.609069 0.793117 92.332 36.2787)"
                fill="#94B5FC"
              ></ellipse>
              <g filter="url(#filter0_b_1998_114616)">
                <path
                  d="M53.2321 16.5143L13.4555 24.7392C11.1717 25.2114 9.69768 27.4397 10.1632 29.7161L20.1921 78.7592C20.6576 81.0356 22.8863 82.4982 25.1701 82.026L64.9467 73.8011C67.2305 73.3289 68.7045 71.1007 68.239 68.8242L58.2101 19.7811C57.7446 17.5047 55.5159 16.0421 53.2321 16.5143Z"
                  fill="#E9F6FE"
                  fill-opacity="0.4"
                ></path>
                <path
                  d="M53.2321 16.5143L13.4555 24.7392C11.1717 25.2114 9.69768 27.4397 10.1632 29.7161L20.1921 78.7592C20.6576 81.0356 22.8863 82.4982 25.1701 82.026L64.9467 73.8011C67.2305 73.3289 68.7045 71.1007 68.239 68.8242L58.2101 19.7811C57.7446 17.5047 55.5159 16.0421 53.2321 16.5143Z"
                  fill="url(#paint0_radial_1998_114616)"
                  fill-opacity="0.2"
                ></path>
              </g>
              <path
                d="M51.7101 23.6545L16.634 30.9074C15.7014 31.1003 15.0994 32.0102 15.2895 32.9399C15.4796 33.8695 16.3898 34.4668 17.3225 34.2739L52.3985 27.021C53.3311 26.8282 53.9331 25.9182 53.743 24.9886C53.5529 24.0589 52.6427 23.4617 51.7101 23.6545Z"
                fill="#ADCCFF"
              ></path>
              <path
                d="M35.6076 33.416L17.8996 37.0776C16.967 37.2704 16.365 38.1804 16.5552 39.11C16.7453 40.0397 17.6554 40.637 18.5881 40.4441L36.296 36.7825C37.2287 36.5897 37.8306 35.6797 37.6405 34.7501C37.4504 33.8204 36.5402 33.2231 35.6076 33.416Z"
                fill="#78AAFF"
              ></path>
              <path
                d="M45.0828 37.8885L19.1614 43.2485C18.2287 43.4413 17.6268 44.3513 17.8169 45.2809C18.007 46.2106 18.9171 46.8079 19.8498 46.615L45.7712 41.2551C46.7039 41.0622 47.3058 40.1522 47.1157 39.2226C46.9256 38.293 46.0155 37.6957 45.0828 37.8885Z"
                fill="#CBDFFF"
              ></path>
              <path
                d="M36.0762 46.3023L20.4465 49.5341C19.5139 49.727 18.9119 50.6369 19.102 51.5666C19.2921 52.4962 20.2023 53.0935 21.1349 52.9007L36.7647 49.6688C37.6973 49.4759 38.2993 48.566 38.1092 47.6363C37.9191 46.7067 37.0089 46.1094 36.0762 46.3023Z"
                fill="#CBDFFF"
              ></path>
              <path
                d="M51.1441 43.1881L40.6145 45.3654C39.6818 45.5583 39.0799 46.4682 39.27 47.3979C39.4601 48.3275 40.3703 48.9248 41.3029 48.7319L51.8325 46.5547C52.7652 46.3618 53.3671 45.4519 53.177 44.5222C52.9869 43.5926 52.0767 42.9953 51.1441 43.1881Z"
                fill="#78AAFF"
              ></path>
              <g filter="url(#filter1_b_1998_114616)">
                <path
                  d="M49.8753 52.9669L31.4381 56.7793C30.6007 56.9524 30.0602 57.7694 30.2309 58.6041L33.1583 72.9197C33.329 73.7543 34.1462 74.2906 34.9836 74.1174L53.4208 70.305C54.2582 70.1319 54.7987 69.3149 54.628 68.4802L51.7006 54.1646C51.5299 53.33 50.7127 52.7937 49.8753 52.9669Z"
                  fill="#FDFEFF"
                  fill-opacity="0.8"
                ></path>
              </g>
              <path
                d="M43.4128 56.5384L34.8595 58.307C34.6545 58.3494 34.5222 58.5494 34.5639 58.7538L37.1562 71.4304C37.198 71.6348 37.3981 71.7661 37.6031 71.7237L46.1564 69.955C46.3614 69.9126 46.4937 69.7126 46.452 69.5083L43.8597 56.8317C43.8179 56.6273 43.6178 56.496 43.4128 56.5384Z"
                fill="#CBDFFF"
              ></path>
              <path
                d="M38.5701 59.4754L37.1245 59.7743C37.0061 59.7988 36.9297 59.9143 36.9538 60.0323L37.2485 61.4732C37.2726 61.5912 37.3882 61.667 37.5066 61.6426L38.9522 61.3436C39.0705 61.3192 39.147 61.2036 39.1228 61.0856L38.8282 59.6447C38.804 59.5267 38.6885 59.4509 38.5701 59.4754Z"
                fill="white"
              ></path>
              <path
                d="M42.199 58.7251L40.7534 59.024C40.635 59.0485 40.5586 59.164 40.5828 59.282L40.8774 60.723C40.9015 60.841 41.0171 60.9168 41.1355 60.8923L42.5811 60.5934C42.6995 60.5689 42.7759 60.4534 42.7517 60.3354L42.4571 58.8945C42.4329 58.7765 42.3174 58.7006 42.199 58.7251Z"
                fill="white"
              ></path>
              <path
                d="M39.1482 62.3245L37.7026 62.6234C37.5842 62.6479 37.5078 62.7634 37.532 62.8814L37.8266 64.3223C37.8508 64.4403 37.9663 64.5162 38.0847 64.4917L39.5303 64.1928C39.6487 64.1683 39.7251 64.0528 39.7009 63.9348L39.4063 62.4938C39.3822 62.3758 39.2666 62.3 39.1482 62.3245Z"
                fill="white"
              ></path>
              <path
                d="M39.7303 65.1725L38.2847 65.4714C38.1663 65.4959 38.0899 65.6114 38.114 65.7294L38.4087 67.1703C38.4328 67.2884 38.5483 67.3642 38.6667 67.3397L40.1123 67.0408C40.2307 67.0163 40.3071 66.9008 40.283 66.7828L39.9883 65.3418C39.9642 65.2238 39.8487 65.148 39.7303 65.1725Z"
                fill="white"
              ></path>
              <path
                d="M40.3162 68.0232L38.8706 68.3221C38.7522 68.3466 38.6758 68.4621 38.6999 68.5801L38.9946 70.0211C39.0187 70.1391 39.1343 70.2149 39.2526 70.1904L40.6983 69.8915C40.8166 69.867 40.893 69.7515 40.8689 69.6335L40.5743 68.1926C40.5501 68.0746 40.4346 67.9987 40.3162 68.0232Z"
                fill="white"
              ></path>
              <path
                d="M48.5433 59.3587L40.9493 60.929C40.7443 60.9714 40.612 61.1714 40.6538 61.3757L42.4852 70.3315C42.5269 70.5358 42.727 70.6671 42.932 70.6247L50.526 69.0544C50.731 69.0121 50.8633 68.812 50.8215 68.6077L48.9902 59.652C48.9484 59.4476 48.7483 59.3163 48.5433 59.3587Z"
                fill="#C4D5FF"
              ></path>
              <path
                d="M44.199 61.2785L42.7534 61.5774C42.635 61.6019 42.5586 61.7174 42.5828 61.8354L42.8774 63.2763C42.9015 63.3943 43.0171 63.4701 43.1355 63.4456L44.5811 63.1467C44.6995 63.1223 44.7759 63.0068 44.7517 62.8887L44.4571 61.4478C44.4329 61.3298 44.3174 61.254 44.199 61.2785Z"
                fill="white"
              ></path>
              <path
                d="M47.1404 60.6696L45.6948 60.9685C45.5764 60.993 45.5 61.1085 45.5242 61.2265L45.8188 62.6674C45.843 62.7854 45.9585 62.8612 46.0769 62.8368L47.5225 62.5378C47.6409 62.5134 47.7173 62.3979 47.6931 62.2799L47.3985 60.8389C47.3743 60.7209 47.2588 60.6451 47.1404 60.6696Z"
                fill="white"
              ></path>
              <path
                d="M44.7771 64.1315L43.3315 64.4304C43.2132 64.4549 43.1367 64.5704 43.1609 64.6884L43.4555 66.1293C43.4797 66.2473 43.5952 66.3232 43.7136 66.2987L45.1592 65.9998C45.2776 65.9753 45.354 65.8598 45.3299 65.7418L45.0352 64.3008C45.0111 64.1828 44.8955 64.107 44.7771 64.1315Z"
                fill="white"
              ></path>
              <path
                d="M47.7225 63.5222L46.2769 63.8212C46.1585 63.8456 46.0821 63.9611 46.1062 64.0791L46.4009 65.5201C46.425 65.6381 46.5405 65.7139 46.6589 65.6894L48.1045 65.3905C48.2229 65.366 48.2993 65.2505 48.2752 65.1325L47.9805 63.6916C47.9564 63.5736 47.8408 63.4978 47.7225 63.5222Z"
                fill="white"
              ></path>
              <path
                d="M45.3592 66.9793L43.9136 67.2782C43.7952 67.3027 43.7188 67.4182 43.7429 67.5362L44.0376 68.9771C44.0617 69.0951 44.1772 69.1709 44.2956 69.1465L45.7412 68.8475C45.8596 68.8231 45.936 68.7076 45.9119 68.5896L45.6172 67.1486C45.5931 67.0306 45.4776 66.9548 45.3592 66.9793Z"
                fill="white"
              ></path>
              <path
                d="M48.3045 66.3709L46.8589 66.6698C46.7405 66.6943 46.6641 66.8098 46.6882 66.9278L46.9829 68.3687C47.007 68.4867 47.1225 68.5625 47.2409 68.5381L48.6865 68.2391C48.8049 68.2147 48.8813 68.0992 48.8572 67.9812L48.5625 66.5402C48.5384 66.4222 48.4229 66.3464 48.3045 66.3709Z"
                fill="white"
              ></path>
              <path
                d="M84.3652 53.364C86.0484 51.6842 88.8006 51.6615 90.5124 53.3133C92.0925 54.838 92.2337 57.2566 90.9222 58.9409L90.564 59.3457L64.9176 84.9401C63.4071 86.4475 61.0257 86.6261 59.3095 85.4333L58.8953 85.1065L45.42 73.0929C43.6431 71.5087 43.5113 68.8109 45.1256 67.0671C46.6157 65.4575 49.0728 65.2235 50.8396 66.443L51.2659 66.7782L61.6443 76.0284L84.3652 53.364Z"
                fill="url(#paint1_linear_1998_114616)"
              ></path>
              <path
                d="M4.41493 74.0458C6.04706 77.6004 4.7033 80.1102 2.34658 81.1905C4.7033 80.1102 7.4625 80.683 8.92003 83.8574C7.4625 80.683 8.69077 78.2823 11.1843 77.1392C8.69077 78.2823 6.03599 77.5763 4.41493 74.0458Z"
                fill="#7BEED8"
              ></path>
              <ellipse cx="8.33485" cy="90.3857" rx="1.35047" ry="1.36141" fill="#94B5FC"></ellipse>
            </g>
            <defs>
              <filter
                id="filter0_b_1998_114616"
                x="6.60446"
                y="12.952"
                width="65.1934"
                height="72.6363"
                filterUnits="userSpaceOnUse"
                color-interpolation-filters="sRGB"
              >
                <feFlood flood-opacity="0" result="BackgroundImageFix"></feFlood>
                <feGaussianBlur in="BackgroundImageFix" stdDeviation="1.73683"></feGaussianBlur>
                <feComposite in2="SourceAlpha" operator="in" result="effect1_backgroundBlur_1998_114616"></feComposite>
                <feBlend mode="normal" in="SourceGraphic" in2="effect1_backgroundBlur_1998_114616" result="shape"></feBlend>
              </filter>
              <filter
                id="filter1_b_1998_114616"
                x="27.6686"
                y="50.4037"
                width="29.5222"
                height="26.2768"
                filterUnits="userSpaceOnUse"
                color-interpolation-filters="sRGB"
              >
                <feFlood flood-opacity="0" result="BackgroundImageFix"></feFlood>
                <feGaussianBlur in="BackgroundImageFix" stdDeviation="1.26531"></feGaussianBlur>
                <feComposite in2="SourceAlpha" operator="in" result="effect1_backgroundBlur_1998_114616"></feComposite>
                <feBlend mode="normal" in="SourceGraphic" in2="effect1_backgroundBlur_1998_114616" result="shape"></feBlend>
              </filter>
              <radialGradient
                id="paint0_radial_1998_114616"
                cx="0"
                cy="0"
                r="1"
                gradientUnits="userSpaceOnUse"
                gradientTransform="translate(34.8944 26.0985) rotate(78.9018) scale(52.8026 44.3059)"
              >
                <stop stop-color="#3662FF"></stop>
                <stop offset="1" stop-color="#ADEBFF" stop-opacity="0.68"></stop>
              </radialGradient>
              <linearGradient
                id="paint1_linear_1998_114616"
                x1="67.9038"
                y1="52.0891"
                x2="67.9038"
                y2="86.215"
                gradientUnits="userSpaceOnUse"
              >
                <stop stop-color="#88D3FC"></stop>
                <stop offset="1" stop-color="#70A6FB"></stop>
              </linearGradient>
            </defs>
          </svg>