<svg class="svg-icon" style="width: 1em;height: 1em;vertical-align: middle;fill: currentColor;overflow: hidden;" viewBox="0 0 1024 1024" version="1.1" xmlns="http://www.w3.org/2000/svg"><path d="M746.24 689.5616H277.9648v-235.52a234.1376 234.1376 0 0 1 468.2752 0z m-437.5552-30.72h406.8352v-204.8a203.4176 203.4176 0 0 0-406.8352 0z" fill="#099DFD" /><path d="M814.08 689.8176H209.92a15.36 15.36 0 1 1 0-30.72h604.16a15.36 15.36 0 0 1 0 30.72z" fill="#099DFD" /><path d="M511.2832 803.84a129.6896 129.6896 0 0 1-129.536-129.536v-15.36h259.072v15.36a129.6896 129.6896 0 0 1-129.536 129.536z m-97.6384-114.176a98.8672 98.8672 0 0 0 195.2768 0zM390.5536 471.04a15.36 15.36 0 0 1-15.36-15.36 137.9328 137.9328 0 0 1 137.728-137.728h0.9728a15.36 15.36 0 0 1 14.7968 15.9232 15.36 15.36 0 0 1-15.7696 14.7456h-0.3584A107.1104 107.1104 0 0 0 405.9136 455.68a15.36 15.36 0 0 1-15.36 15.36z" fill="#099DFD" /></svg>