 <svg viewBox="0 0 16 17" fill="currentColor" xmlns="http://www.w3.org/2000/svg" >
    <path d="M14.027 1.281h-8.12a1.975 1.975 0 0 0-1.971 1.972V9.56a1.975 1.975 0 0 0 1.972 1.972h8.119a1.975 1.975 0 0 0 1.971-1.972V3.253a1.975 1.975 0 0 0-1.971-1.972m-8.12 1.563h8.12a.41.41 0 0 1 .409.41v5.315L13.48 7.6a.78.78 0 0 0-.557-.231.78.78 0 0 0-.559.234l-.719.735-2.81-2.825a.78.78 0 0 0-.552-.229H8.28a.77.77 0 0 0-.55.229l-2.232 2.23v-4.49a.41.41 0 0 1 .41-.41"></path>
    <path d="M12.948 5.364a.894.894 0 1 0-1.652-.684.894.894 0 0 0 1.652.684m-2.753 8.533a.416.416 0 0 1-.506.284l-7.825-2.193a.42.42 0 0 1-.297-.347.4.4 0 0 1 .012-.16l.794-2.834V4.034c-.285.252-.49.581-.594.947L.073 11.06a1.97 1.97 0 0 0 1.369 2.432l7.825 2.193a1.966 1.966 0 0 0 2.431-1.365l.344-1.225H10.42z"></path>
  </svg>