<svg id="그룹_2948" data-name="그룹 2948" xmlns="http://www.w3.org/2000/svg" width="28.945" height="35.687" viewBox="0 0 28.945 35.687">
  <g id="그룹_2947" data-name="그룹 2947">
    <path id="패스_3318" data-name="패스 3318" d="M1083.882,476.846a7.974,7.974,0,0,1,5.236-2.7,7.882,7.882,0,0,1-1.851,5.7,6.579,6.579,0,0,1-5.271,2.525,7.493,7.493,0,0,1,1.886-5.522Zm10.171,28.555c-1.484,2.174-3.019,4.337-5.441,4.381-2.384.047-3.146-1.415-5.866-1.415s-3.576,1.371-5.826,1.461c-2.339.088-4.117-2.35-5.611-4.515-3.056-4.428-5.389-12.521-2.252-17.982a8.687,8.687,0,0,1,7.349-4.473c2.3-.043,4.467,1.553,5.868,1.553s4.039-1.917,6.808-1.634a8.284,8.284,0,0,1,6.5,3.533,8.088,8.088,0,0,0-3.836,6.8,7.873,7.873,0,0,0,4.769,7.218,19.662,19.662,0,0,1-2.46,5.077Zm0,0" transform="translate(-1067.568 -474.144)" fill="#fff"/>
  </g>
</svg>
