<svg xmlns="http://www.w3.org/2000/svg" width="32.447" height="33.109" viewBox="0 0 32.447 33.109">
  <g id="그룹_2952" data-name="그룹 2952" transform="translate(0 0)">
    <path id="패스_3321" data-name="패스 3321" d="M732.757,136.187a14.19,14.19,0,0,0-.349-3.385H716.865v6.144h9.123a8.091,8.091,0,0,1-3.384,5.371l-.031.206,4.914,3.807.341.034a16.185,16.185,0,0,0,4.93-12.176" transform="translate(-700.311 -119.264)" fill="#4285f4"/>
    <path id="패스_3322" data-name="패스 3322" d="M691.618,163.112a15.778,15.778,0,0,0,10.963-4.01l-5.224-4.047a9.8,9.8,0,0,1-5.739,1.656,9.966,9.966,0,0,1-9.418-6.879l-.194.017L676.9,153.8l-.067.186a16.542,16.542,0,0,0,14.788,9.123" transform="translate(-675.064 -130.004)" fill="#34a853"/>
    <path id="패스_3323" data-name="패스 3323" d="M679.186,131.419a10.191,10.191,0,0,1-.552-3.274,10.715,10.715,0,0,1,.533-3.274l-.009-.219-5.174-4.018-.169.081a16.518,16.518,0,0,0,0,14.862l5.371-4.157" transform="translate(-672.049 -111.59)" fill="#fbbc05"/>
    <path id="패스_3324" data-name="패스 3324" d="M691.618,102.554a9.175,9.175,0,0,1,6.4,2.465l4.672-4.562a15.906,15.906,0,0,0-11.073-4.3,16.542,16.542,0,0,0-14.788,9.123l5.352,4.157a10.007,10.007,0,0,1,9.436-6.879" transform="translate(-675.064 -96.153)" fill="#eb4335"/>
  </g>
</svg>
