<svg xmlns="http://www.w3.org/2000/svg" width="36.886" height="34.038" viewBox="0 0 36.886 34.038">
  <g id="그룹_2950" data-name="그룹 2950" transform="translate(0 0)">
    <path id="패스_3319" data-name="패스 3319" d="M1071.844,94.126c-10.186,0-18.443,6.511-18.443,14.541,0,5.192,3.452,9.748,8.645,12.321-.282.974-1.815,6.268-1.876,6.683,0,0-.037.313.166.432a.556.556,0,0,0,.44.027c.58-.081,6.729-4.4,7.793-5.15a23.377,23.377,0,0,0,3.276.229c10.186,0,18.443-6.51,18.443-14.541s-8.257-14.541-18.443-14.541Z" transform="translate(-1053.401 -94.126)"/>
    <path id="패스_3320" data-name="패스 3320" d="M1069.159,130.85a1.042,1.042,0,0,1-1.064-1.016v-6.321h-1.66a1.042,1.042,0,1,1,0-2.084h5.448a1.042,1.042,0,1,1,0,2.084h-1.66v6.321A1.042,1.042,0,0,1,1069.159,130.85Zm9.33-.014a.872.872,0,0,1-.885-.47l-.527-1.379h-3.245l-.527,1.38a.872.872,0,0,1-.885.469,1.619,1.619,0,0,1-.677-.147c-.293-.135-.576-.507-.252-1.511l2.545-6.7a1.482,1.482,0,0,1,2.836,0l2.544,6.7c.324,1.006.042,1.378-.252,1.513a1.624,1.624,0,0,1-.676.146Zm-1.971-3.734-1.063-3.019-1.063,3.019Zm4.612,3.593a1,1,0,0,1-1.019-.975v-7.226a1.086,1.086,0,0,1,2.172,0v6.251h2.261a.976.976,0,1,1,0,1.951Zm5.911.141a1.065,1.065,0,0,1-1.064-1.064v-7.279a1.064,1.064,0,1,1,2.128,0v2.287l2.969-2.969a.826.826,0,0,1,.59-.237,1.078,1.078,0,0,1,1.045.989.829.829,0,0,1-.235.648l-2.425,2.424,2.619,3.47a1.064,1.064,0,1,1-1.7,1.282l-2.5-3.306-.369.369v2.321a1.065,1.065,0,0,1-1.064,1.064Z" transform="translate(-1060.913 -111.232)" fill="#ffe812"/>
  </g>
</svg>
